<svg width="682" height="296" viewBox="0 0 682 296" fill="none" xmlns="http://www.w3.org/2000/svg">
<path d="M632 0H50C22.3858 0 0 22.3858 0 50V246C0 273.614 22.3858 296 50 296H632C659.614 296 682 273.614 682 246V50C682 22.3858 659.614 0 632 0Z" fill="#FC3030"/>
<path d="M178.695 216V73.8125H222.445C234.945 73.8125 246.111 76.6445 255.941 82.3086C265.837 87.9076 273.552 95.9154 279.086 106.332C284.62 116.684 287.387 128.467 287.387 141.684V148.227C287.387 161.443 284.652 173.194 279.184 183.48C273.78 193.767 266.13 201.742 256.234 207.406C246.339 213.07 235.173 215.935 222.738 216H178.695ZM207.992 97.543V192.465H222.152C233.611 192.465 242.367 188.721 248.422 181.234C254.477 173.747 257.569 163.038 257.699 149.105V141.586C257.699 127.133 254.704 116.195 248.715 108.773C242.725 101.286 233.969 97.543 222.445 97.543H207.992ZM394.32 154.379H338.07V192.465H404.086V216H308.773V73.8125H403.891V97.543H338.07V131.43H394.32V154.379ZM450.57 192.465H512.777V216H421.273V73.8125H450.57V192.465Z" fill="white"/>
</svg>
