<svg width="780" height="296" viewBox="0 0 780 296" fill="none" xmlns="http://www.w3.org/2000/svg">
<rect width="780" height="296" rx="50" fill="#F93E3E"/>
<path d="M52.6953 216V73.8125H96.4453C108.945 73.8125 120.111 76.6445 129.941 82.3086C139.837 87.9076 147.552 95.9154 153.086 106.332C158.62 116.684 161.387 128.467 161.387 141.684V148.227C161.387 161.443 158.652 173.194 153.184 183.48C147.78 193.767 140.13 201.742 130.234 207.406C120.339 213.07 109.173 215.935 96.7383 216H52.6953ZM81.9922 97.543V192.465H96.1523C107.611 192.465 116.367 188.721 122.422 181.234C128.477 173.747 131.569 163.038 131.699 149.105V141.586C131.699 127.133 128.704 116.195 122.715 108.773C116.725 101.286 107.969 97.543 96.4453 97.543H81.9922ZM268.32 154.379H212.07V192.465H278.086V216H182.773V73.8125H277.891V97.543H212.07V131.43H268.32V154.379ZM324.57 192.465H386.777V216H295.273V73.8125H324.57V192.465ZM489.219 154.379H432.969V192.465H498.984V216H403.672V73.8125H498.789V97.543H432.969V131.43H489.219V154.379ZM625.156 97.543H581.602V216H552.305V97.543H509.336V73.8125H625.156V97.543ZM727.5 154.379H671.25V192.465H737.266V216H641.953V73.8125H737.07V97.543H671.25V131.43H727.5V154.379Z" fill="white"/>
</svg>
