<svg width="682" height="296" viewBox="0 0 682 296" fill="none" xmlns="http://www.w3.org/2000/svg">
<rect width="682" height="296" rx="50" fill="#61AFFE"/>
<path d="M274.195 198.031C268.922 204.346 261.467 209.262 251.832 212.777C242.197 216.228 231.52 217.953 219.801 217.953C207.496 217.953 196.689 215.284 187.379 209.945C178.134 204.542 170.973 196.729 165.895 186.508C160.882 176.286 158.31 164.275 158.18 150.473V140.805C158.18 126.612 160.556 114.34 165.309 103.988C170.126 93.5716 177.027 85.6289 186.012 80.1602C195.061 74.6263 205.641 71.8594 217.75 71.8594C234.612 71.8594 247.796 75.8958 257.301 83.9688C266.806 91.9766 272.438 103.663 274.195 119.027H245.68C244.378 110.889 241.48 104.932 236.988 101.156C232.561 97.3802 226.441 95.4922 218.629 95.4922C208.668 95.4922 201.083 99.2357 195.875 106.723C190.667 114.21 188.03 125.342 187.965 140.121V149.203C187.965 164.112 190.797 175.375 196.461 182.992C202.125 190.609 210.426 194.418 221.363 194.418C232.366 194.418 240.211 192.074 244.898 187.387V162.875H218.238V141.293H274.195V198.031ZM383.57 154.379H327.32V192.465H393.336V216H298.023V73.8125H393.141V97.543H327.32V131.43H383.57V154.379ZM519.508 97.543H475.953V216H446.656V97.543H403.688V73.8125H519.508V97.543Z" fill="white"/>
</svg>
