<svg width="682" height="296" viewBox="0 0 682 296" fill="none" xmlns="http://www.w3.org/2000/svg">
<rect width="682" height="296" rx="50" fill="#49CC90"/>
<path d="M125.992 174.902V225H96.6953V82.8125H152.164C162.841 82.8125 172.216 84.7656 180.289 88.6719C188.427 92.5781 194.677 98.1445 199.039 105.371C203.401 112.533 205.582 120.703 205.582 129.883C205.582 143.815 200.797 154.818 191.227 162.891C181.721 170.898 168.538 174.902 151.676 174.902H125.992ZM125.992 151.172H152.164C159.911 151.172 165.803 149.349 169.84 145.703C173.941 142.057 175.992 136.849 175.992 130.078C175.992 123.112 173.941 117.48 169.84 113.184C165.738 108.887 160.074 106.673 152.848 106.543H125.992V151.172ZM342.594 157.129C342.594 171.126 340.12 183.398 335.172 193.945C330.224 204.492 323.128 212.63 313.883 218.359C304.703 224.089 294.156 226.953 282.242 226.953C270.458 226.953 259.944 224.121 250.699 218.457C241.454 212.793 234.293 204.72 229.215 194.238C224.137 183.691 221.565 171.582 221.5 157.91V150.879C221.5 136.882 224.007 124.577 229.02 113.965C234.098 103.288 241.227 95.1172 250.406 89.4531C259.651 83.724 270.198 80.8594 282.047 80.8594C293.896 80.8594 304.41 83.724 313.59 89.4531C322.835 95.1172 329.964 103.288 334.977 113.965C340.055 124.577 342.594 136.849 342.594 150.781V157.129ZM312.906 150.684C312.906 135.775 310.237 124.447 304.898 116.699C299.56 108.952 291.943 105.078 282.047 105.078C272.216 105.078 264.632 108.919 259.293 116.602C253.954 124.219 251.253 135.417 251.188 150.195V157.129C251.188 171.647 253.857 182.91 259.195 190.918C264.534 198.926 272.216 202.93 282.242 202.93C292.073 202.93 299.625 199.089 304.898 191.406C310.172 183.659 312.841 172.396 312.906 157.617V150.684ZM437.613 187.695C437.613 182.161 435.66 177.93 431.754 175C427.848 172.005 420.816 168.88 410.66 165.625C400.504 162.305 392.464 159.049 386.539 155.859C370.393 147.135 362.32 135.384 362.32 120.605C362.32 112.923 364.469 106.087 368.766 100.098C373.128 94.043 379.345 89.3229 387.418 85.9375C395.556 82.5521 404.671 80.8594 414.762 80.8594C424.918 80.8594 433.967 82.7148 441.91 86.4258C449.853 90.0716 456.005 95.2474 460.367 101.953C464.794 108.659 467.008 116.276 467.008 124.805H437.711C437.711 118.294 435.66 113.249 431.559 109.668C427.457 106.022 421.695 104.199 414.273 104.199C407.112 104.199 401.546 105.729 397.574 108.789C393.603 111.784 391.617 115.755 391.617 120.703C391.617 125.326 393.928 129.199 398.551 132.324C403.238 135.449 410.107 138.379 419.156 141.113C435.823 146.126 447.965 152.344 455.582 159.766C463.199 167.188 467.008 176.432 467.008 187.5C467.008 199.805 462.353 209.473 453.043 216.504C443.733 223.47 431.201 226.953 415.445 226.953C404.508 226.953 394.547 224.967 385.562 220.996C376.578 216.96 369.71 211.458 364.957 204.492C360.27 197.526 357.926 189.453 357.926 180.273H387.32C387.32 195.964 396.695 203.809 415.445 203.809C422.411 203.809 427.848 202.409 431.754 199.609C435.66 196.745 437.613 192.773 437.613 187.695ZM593.961 106.543H550.406V225H521.109V106.543H478.141V82.8125H593.961V106.543Z" fill="white"/>
</svg>
