<svg width="682" height="296" viewBox="0 0 682 296" fill="none" xmlns="http://www.w3.org/2000/svg">
<rect width="682" height="296" rx="50" fill="#FCA130"/>
<path d="M190.992 165.902V216H161.695V73.8125H217.164C227.841 73.8125 237.216 75.7656 245.289 79.6719C253.427 83.5781 259.677 89.1445 264.039 96.3711C268.401 103.533 270.582 111.703 270.582 120.883C270.582 134.815 265.797 145.818 256.227 153.891C246.721 161.898 233.538 165.902 216.676 165.902H190.992ZM190.992 142.172H217.164C224.911 142.172 230.803 140.349 234.84 136.703C238.941 133.057 240.992 127.849 240.992 121.078C240.992 114.112 238.941 108.48 234.84 104.184C230.738 99.8867 225.074 97.6732 217.848 97.543H190.992V142.172ZM398.414 73.8125V167.465C398.414 183.025 393.531 195.329 383.766 204.379C374.065 213.428 360.784 217.953 343.922 217.953C327.32 217.953 314.137 213.559 304.371 204.77C294.605 195.98 289.625 183.904 289.43 168.539V73.8125H318.727V167.66C318.727 176.97 320.94 183.773 325.367 188.07C329.859 192.302 336.044 194.418 343.922 194.418C360.393 194.418 368.759 185.759 369.02 168.441V73.8125H398.414ZM529.469 97.543H485.914V216H456.617V97.543H413.648V73.8125H529.469V97.543Z" fill="white"/>
</svg>
