<svg width="325" height="184" viewBox="0 0 325 184" fill="none" xmlns="http://www.w3.org/2000/svg">
<path d="M145.651 121.796C144.268 140.92 137.188 155.976 124.411 166.962C111.716 177.948 94.9515 183.441 74.1182 183.441C51.3317 183.441 33.3874 175.792 20.2852 160.492C7.26432 145.111 0.753906 124.034 0.753906 97.2598V86.3955C0.753906 69.3057 3.76497 54.2503 9.78711 41.2295C15.8092 28.2087 24.3949 18.2396 35.5439 11.3223C46.7744 4.32357 59.7952 0.824219 74.6064 0.824219C95.1143 0.824219 111.634 6.31738 124.167 17.3037C136.7 28.29 143.942 43.7116 145.896 63.5684H109.274C108.379 52.0938 105.165 43.793 99.6309 38.666C94.1784 33.4577 85.8369 30.8535 74.6064 30.8535C62.3994 30.8535 53.2441 35.248 47.1406 44.0371C41.1185 52.7448 38.026 66.2946 37.8633 84.6865V98.1143C37.8633 117.32 40.7523 131.358 46.5303 140.229C52.3896 149.099 61.5856 153.534 74.1182 153.534C85.43 153.534 93.8529 150.971 99.3867 145.844C105.002 140.635 108.216 132.619 109.03 121.796H145.651ZM324.826 32.9287H270.383V181H233.762V32.9287H180.051V3.26562H324.826V32.9287Z" fill="#12AA6A"/>
</svg>
