<svg width="309" height="178" viewBox="0 0 309 178" fill="none" xmlns="http://www.w3.org/2000/svg">
<path d="M61.9209 112.937H32.7461V178H-3.875V0.265625H62.165C83.1611 0.265625 99.3558 4.94499 110.749 14.3037C122.142 23.6624 127.839 36.8867 127.839 53.9766C127.839 66.1022 125.194 76.234 119.904 84.3721C114.696 92.4287 106.761 98.8577 96.1006 103.659L134.553 176.291V178H95.2461L61.9209 112.937ZM32.7461 83.2734H62.2871C71.4831 83.2734 78.6038 80.9541 83.6494 76.3154C88.695 71.5954 91.2178 65.1257 91.2178 56.9062C91.2178 48.5241 88.8171 41.9323 84.0156 37.1309C79.2956 32.3294 72.012 29.9287 62.165 29.9287H32.7461V83.2734ZM308.479 29.9287H254.035V178H217.414V29.9287H163.703V0.265625H308.479V29.9287Z" fill="#FF5555"/>
</svg>
