<svg width="321" height="184" viewBox="0 0 321 184" fill="none" xmlns="http://www.w3.org/2000/svg">
<path d="M100.288 134.369C100.288 127.452 97.8467 122.162 92.9639 118.5C88.0811 114.757 79.292 110.85 66.5967 106.781C53.9014 102.631 43.8509 98.5618 36.4453 94.5742C16.263 83.6693 6.17188 68.9801 6.17188 50.5068C6.17188 40.904 8.85742 32.359 14.2285 24.8721C19.681 17.3037 27.4528 11.4036 37.5439 7.17188C47.7165 2.9401 59.1097 0.824219 71.7236 0.824219C84.4189 0.824219 95.7308 3.14355 105.659 7.78223C115.588 12.3395 123.278 18.8092 128.73 27.1914C134.264 35.5736 137.031 45.0951 137.031 55.7559H100.41C100.41 47.6178 97.8467 41.3109 92.7197 36.835C87.5928 32.2777 80.3906 29.999 71.1133 29.999C62.1615 29.999 55.2035 31.9115 50.2393 35.7363C45.2751 39.4798 42.793 44.444 42.793 50.6289C42.793 56.4069 45.682 61.249 51.46 65.1553C57.3193 69.0615 65.9049 72.7236 77.2168 76.1416C98.0501 82.4079 113.228 90.1797 122.749 99.457C132.271 108.734 137.031 120.29 137.031 134.125C137.031 149.506 131.213 161.591 119.575 170.38C107.938 179.088 92.2721 183.441 72.5781 183.441C58.9062 183.441 46.4551 180.959 35.2246 175.995C23.9941 170.95 15.4085 164.073 9.46777 155.365C3.6084 146.658 0.678711 136.566 0.678711 125.092H37.4219C37.4219 144.704 49.1406 154.511 72.5781 154.511C81.2858 154.511 88.0811 152.761 92.9639 149.262C97.8467 145.681 100.288 140.717 100.288 134.369ZM320.723 32.9287H266.279V181H229.658V32.9287H175.947V3.26562H320.723V32.9287Z" fill="#5570FF"/>
</svg>
