<svg width="469" height="178" viewBox="0 0 469 178" fill="none" xmlns="http://www.w3.org/2000/svg">
<path d="M0.869141 178V0.265625H55.5566C71.1816 0.265625 85.1383 3.80566 97.4268 10.8857C109.797 17.8844 119.44 27.8942 126.357 40.915C133.275 53.8545 136.733 68.5843 136.733 85.1045V93.2832C136.733 109.803 133.315 124.493 126.479 137.351C119.725 150.209 110.163 160.178 97.793 167.258C85.4232 174.338 71.4665 177.919 55.9229 178H0.869141ZM37.4902 29.9287V148.581H55.1904C69.5133 148.581 80.459 143.902 88.0273 134.543C95.5957 125.184 99.4613 111.797 99.624 94.3818V84.9824C99.624 66.916 95.8805 53.2441 88.3936 43.9668C80.9066 34.6081 69.9609 29.9287 55.5566 29.9287H37.4902ZM295.4 100.974H225.088V148.581H307.607V178H188.467V0.265625H307.363V29.9287H225.088V72.2871H295.4V100.974ZM390.713 148.581H468.472V178H354.092V0.265625H390.713V148.581Z" fill="#FC2D2D"/>
</svg>
