<?xml version="1.0"?>
<svg xmlns="http://www.w3.org/2000/svg" xmlns:xlink="http://www.w3.org/1999/xlink" version="1.1" id="Capa_1" x="0px" y="0px" viewBox="0 0 468.293 468.293" style="enable-background:new 0 0 468.293 468.293;" xml:space="preserve" width="512px" height="512px" class=""><g><path style="fill:#7575F4" d="M444.06,363.668H24.232V40.248c0-6.897,5.591-12.488,12.488-12.488h96.013  c3.697,0,7.204,1.638,9.577,4.474l33.604,40.157c2.373,2.835,5.88,4.474,9.577,4.474h246.081c6.897,0,12.488,5.591,12.488,12.488  V363.668z" data-original="#FCD462" class="active-path" data-old_color="#FCD462"/><rect x="59.629" y="103.024" style="fill:#E1E6E9;" width="349.003" height="92.666" data-original="#E1E6E9"/><rect x="78.361" y="121.756" style="fill:#D5D6DB" width="311.539" height="92.666" data-original="#D5D6DB" class=""/><rect x="97.093" y="140.488" style="fill:#E1E6E9;" width="274.076" height="92.666" data-original="#E1E6E9"/><path style="fill:#6464F6" d="M437.073,440.532H31.22c-17.242,0-31.22-13.977-31.22-31.22V177.456  c0-6.897,5.591-12.488,12.488-12.488h443.317c6.897,0,12.488,5.591,12.488,12.488v231.857  C468.293,426.555,454.315,440.532,437.073,440.532z" data-original="#F6C358" class="" data-old_color="#F6C358"/></g> </svg>
