<svg width="503" height="184" viewBox="0 0 503 184" fill="none" xmlns="http://www.w3.org/2000/svg">
<path d="M145.494 158.539C138.902 166.433 129.584 172.577 117.54 176.972C105.496 181.285 92.1494 183.441 77.501 183.441C62.1201 183.441 48.611 180.105 36.9736 173.432C25.4176 166.677 16.4658 156.911 10.1182 144.135C3.85189 131.358 0.63737 116.343 0.474609 99.0908V87.0059C0.474609 69.265 3.44499 53.9248 9.38574 40.9854C15.4079 27.9645 24.0342 18.0361 35.2646 11.2002C46.5765 4.28288 59.8008 0.824219 74.9375 0.824219C96.015 0.824219 112.494 5.86979 124.376 15.9609C136.257 25.9707 143.297 40.5785 145.494 59.7842H109.85C108.222 49.6117 104.601 42.1654 98.9854 37.4453C93.4515 32.7253 85.8018 30.3652 76.0361 30.3652C63.585 30.3652 54.1042 35.0446 47.5938 44.4033C41.0833 53.762 37.7874 67.6781 37.7061 86.1514V97.5039C37.7061 116.14 41.2461 130.219 48.3262 139.74C55.4062 149.262 65.7822 154.022 79.4541 154.022C93.2074 154.022 103.014 151.093 108.873 145.233V114.594H75.5479V87.6162H145.494V158.539ZM307.213 103.974H236.9V151.581H319.42V181H200.279V3.26562H319.176V32.9287H236.9V75.2871H307.213V103.974ZM502.135 32.9287H447.691V181H411.07V32.9287H357.359V3.26562H502.135V32.9287Z" fill="#2093FD"/>
</svg>
