<svg width="682" height="184" viewBox="0 0 682 184" fill="none" xmlns="http://www.w3.org/2000/svg">
<path d="M34.4902 118.378V181H-2.13086V3.26562H67.2051C80.5514 3.26562 92.2702 5.70703 102.361 10.5898C112.534 15.4727 120.346 22.4307 125.799 31.4639C131.251 40.4157 133.978 50.6289 133.978 62.1035C133.978 79.5189 127.996 93.2721 116.033 103.363C104.152 113.373 87.6722 118.378 66.5947 118.378H34.4902ZM34.4902 88.7148H67.2051C76.8893 88.7148 84.2542 86.4362 89.2998 81.8789C94.4268 77.3216 96.9902 70.8112 96.9902 62.3477C96.9902 53.64 94.4268 46.6006 89.2998 41.2295C84.1729 35.8584 77.0928 33.0915 68.0596 32.9287H34.4902V88.7148ZM330.242 96.1611C330.242 113.658 327.15 128.998 320.965 142.182C314.78 155.365 305.91 165.538 294.354 172.699C282.879 179.861 269.695 183.441 254.803 183.441C240.073 183.441 226.93 179.901 215.374 172.821C203.818 165.741 194.866 155.65 188.519 142.548C182.171 129.364 178.956 114.228 178.875 97.1377V88.3486C178.875 70.8519 182.008 55.471 188.274 42.2061C194.622 28.8597 203.533 18.6465 215.008 11.5664C226.564 4.40495 239.747 0.824219 254.559 0.824219C269.37 0.824219 282.513 4.40495 293.987 11.5664C305.543 18.6465 314.454 28.8597 320.721 42.2061C327.068 55.471 330.242 70.8112 330.242 88.2266V96.1611ZM293.133 88.1045C293.133 69.4684 289.796 55.3083 283.123 45.624C276.45 35.9398 266.928 31.0977 254.559 31.0977C242.27 31.0977 232.789 35.8991 226.116 45.502C219.443 55.0234 216.066 69.0208 215.984 87.4941V96.1611C215.984 114.309 219.321 128.388 225.994 138.397C232.667 148.407 242.27 153.412 254.803 153.412C267.091 153.412 276.531 148.611 283.123 139.008C289.715 129.324 293.051 115.245 293.133 96.7715V88.1045ZM474.017 134.369C474.017 127.452 471.575 122.162 466.692 118.5C461.81 114.757 453.021 110.85 440.325 106.781C427.63 102.631 417.579 98.5618 410.174 94.5742C389.992 83.6693 379.9 68.9801 379.9 50.5068C379.9 40.904 382.586 32.359 387.957 24.8721C393.41 17.3037 401.181 11.4036 411.272 7.17188C421.445 2.9401 432.838 0.824219 445.452 0.824219C458.147 0.824219 469.459 3.14355 479.388 7.78223C489.316 12.3395 497.007 18.8092 502.459 27.1914C507.993 35.5736 510.76 45.0951 510.76 55.7559H474.139C474.139 47.6178 471.575 41.3109 466.448 36.835C461.321 32.2777 454.119 29.999 444.842 29.999C435.89 29.999 428.932 31.9115 423.968 35.7363C419.004 39.4798 416.521 44.444 416.521 50.6289C416.521 56.4069 419.41 61.249 425.188 65.1553C431.048 69.0615 439.633 72.7236 450.945 76.1416C471.779 82.4079 486.956 90.1797 496.478 99.457C505.999 108.734 510.76 120.29 510.76 134.125C510.76 149.506 504.941 161.591 493.304 170.38C481.666 179.088 466.001 183.441 446.307 183.441C432.635 183.441 420.184 180.959 408.953 175.995C397.723 170.95 389.137 164.073 383.196 155.365C377.337 146.658 374.407 136.566 374.407 125.092H411.15C411.15 144.704 422.869 154.511 446.307 154.511C455.014 154.511 461.81 152.761 466.692 149.262C471.575 145.681 474.017 140.717 474.017 134.369ZM694.451 32.9287H640.008V181H603.387V32.9287H549.676V3.26562H694.451V32.9287Z" fill="#28FBA2"/>
</svg>
