<svg width="682" height="184" viewBox="0 0 682 184" fill="none" xmlns="http://www.w3.org/2000/svg">
<path d="M33.4902 118.378V181H-3.13086V3.26562H66.2051C79.5514 3.26562 91.2702 5.70703 101.361 10.5898C111.534 15.4727 119.346 22.4307 124.799 31.4639C130.251 40.4157 132.978 50.6289 132.978 62.1035C132.978 79.5189 126.996 93.2721 115.033 103.363C103.152 113.373 86.6722 118.378 65.5947 118.378H33.4902ZM33.4902 88.7148H66.2051C75.8893 88.7148 83.2542 86.4362 88.2998 81.8789C93.4268 77.3216 95.9902 70.8112 95.9902 62.3477C95.9902 53.64 93.4268 46.6006 88.2998 41.2295C83.1729 35.8584 76.0928 33.0915 67.0596 32.9287H33.4902V88.7148ZM329.242 96.1611C329.242 113.658 326.15 128.998 319.965 142.182C313.78 155.365 304.91 165.538 293.354 172.699C281.879 179.861 268.695 183.441 253.803 183.441C239.073 183.441 225.93 179.901 214.374 172.821C202.818 165.741 193.866 155.65 187.519 142.548C181.171 129.364 177.956 114.228 177.875 97.1377V88.3486C177.875 70.8519 181.008 55.471 187.274 42.2061C193.622 28.8597 202.533 18.6465 214.008 11.5664C225.564 4.40495 238.747 0.824219 253.559 0.824219C268.37 0.824219 281.513 4.40495 292.987 11.5664C304.543 18.6465 313.454 28.8597 319.721 42.2061C326.068 55.471 329.242 70.8112 329.242 88.2266V96.1611ZM292.133 88.1045C292.133 69.4684 288.796 55.3083 282.123 45.624C275.45 35.9398 265.928 31.0977 253.559 31.0977C241.27 31.0977 231.789 35.8991 225.116 45.502C218.443 55.0234 215.066 69.0208 214.984 87.4941V96.1611C214.984 114.309 218.321 128.388 224.994 138.397C231.667 148.407 241.27 153.412 253.803 153.412C266.091 153.412 275.531 148.611 282.123 139.008C288.715 129.324 292.051 115.245 292.133 96.7715V88.1045ZM473.017 134.369C473.017 127.452 470.575 122.162 465.692 118.5C460.81 114.757 452.021 110.85 439.325 106.781C426.63 102.631 416.579 98.5618 409.174 94.5742C388.992 83.6693 378.9 68.9801 378.9 50.5068C378.9 40.904 381.586 32.359 386.957 24.8721C392.41 17.3037 400.181 11.4036 410.272 7.17188C420.445 2.9401 431.838 0.824219 444.452 0.824219C457.147 0.824219 468.459 3.14355 478.388 7.78223C488.316 12.3395 496.007 18.8092 501.459 27.1914C506.993 35.5736 509.76 45.0951 509.76 55.7559H473.139C473.139 47.6178 470.575 41.3109 465.448 36.835C460.321 32.2777 453.119 29.999 443.842 29.999C434.89 29.999 427.932 31.9115 422.968 35.7363C418.004 39.4798 415.521 44.444 415.521 50.6289C415.521 56.4069 418.41 61.249 424.188 65.1553C430.048 69.0615 438.633 72.7236 449.945 76.1416C470.779 82.4079 485.956 90.1797 495.478 99.457C504.999 108.734 509.76 120.29 509.76 134.125C509.76 149.506 503.941 161.591 492.304 170.38C480.666 179.088 465.001 183.441 445.307 183.441C431.635 183.441 419.184 180.959 407.953 175.995C396.723 170.95 388.137 164.073 382.196 155.365C376.337 146.658 373.407 136.566 373.407 125.092H410.15C410.15 144.704 421.869 154.511 445.307 154.511C454.014 154.511 460.81 152.761 465.692 149.262C470.575 145.681 473.017 140.717 473.017 134.369ZM693.451 32.9287H639.008V181H602.387V32.9287H548.676V3.26562H693.451V32.9287Z" fill="#12AA6A"/>
</svg>
