<svg width="508" height="181" viewBox="0 0 508 181" fill="none" xmlns="http://www.w3.org/2000/svg">
<path d="M34.4902 115.378V178H-2.13086V0.265625H67.2051C80.5514 0.265625 92.2702 2.70703 102.361 7.58984C112.534 12.4727 120.346 19.4307 125.799 28.4639C131.251 37.4157 133.978 47.6289 133.978 59.1035C133.978 76.5189 127.996 90.2721 116.033 100.363C104.152 110.373 87.6722 115.378 66.5947 115.378H34.4902ZM34.4902 85.7148H67.2051C76.8893 85.7148 84.2542 83.4362 89.2998 78.8789C94.4268 74.3216 96.9902 67.8112 96.9902 59.3477C96.9902 50.64 94.4268 43.6006 89.2998 38.2295C84.1729 32.8584 77.0928 30.0915 68.0596 29.9287H34.4902V85.7148ZM318.768 0.265625V117.331C318.768 136.781 312.664 152.162 300.457 163.474C288.331 174.785 271.73 180.441 250.652 180.441C229.9 180.441 213.421 174.948 201.214 163.962C189.007 152.976 182.781 137.88 182.537 118.674V0.265625H219.158V117.575C219.158 129.213 221.925 137.717 227.459 143.088C233.074 148.378 240.805 151.022 250.652 151.022C271.242 151.022 281.699 140.199 282.024 118.552V0.265625H318.768ZM507.586 29.9287H453.143V178H416.521V29.9287H362.811V0.265625H507.586V29.9287Z" fill="#FBA628"/>
</svg>
