<svg width="281" height="267" viewBox="0 0 281 267" fill="none" xmlns="http://www.w3.org/2000/svg">
<g clip-path="url(#clip0)">
<path d="M266.013 235.988H14.9869C6.70976 235.988 -1.52588e-05 229.612 -1.52588e-05 221.747V45.2521C-1.52588e-05 37.3874 6.70976 31.0119 14.9869 31.0119H85.8506C91.2649 31.0119 96.2585 33.7869 98.9131 38.2711L107.178 52.2326C109.832 56.7168 114.825 59.4918 120.24 59.4918H266.014C274.291 59.4918 281.001 65.8673 281.001 73.732V221.747C281 229.612 274.29 235.988 266.013 235.988Z" fill="#3B8AEC"/>
<path d="M14.9869 235.988H266.013C274.29 235.988 281 229.612 281 221.747V73.7326C281 65.8678 274.29 59.4923 266.013 59.4923H157.683C152.269 59.4923 147.275 62.2673 144.62 66.7516L136.356 80.713C133.702 85.1973 128.708 87.9722 123.293 87.9722H14.9869C6.70976 87.9722 -1.52588e-05 94.3477 -1.52588e-05 102.212V221.747C-1.52588e-05 229.612 6.70976 235.988 14.9869 235.988Z" fill="#1273EB"/>
<path d="M272.159 60.7729C273.007 62.5586 273.506 64.5257 273.506 66.6125V214.627C273.506 222.491 266.796 228.867 258.519 228.867H7.49343C5.29724 228.867 3.22706 228.394 1.3477 227.587C3.6975 232.531 8.90655 235.988 14.9869 235.988H266.013C274.29 235.988 281 229.612 281 221.747V73.7326C281 67.9546 277.363 63.0056 272.159 60.7729Z" fill="#3B8AEC"/>
<g opacity="0.75" clip-path="url(#clip1)">
<path d="M271.922 228.235L265.219 203.824C264.879 202.588 263.51 201.707 261.928 201.707H241.622L231.722 199.91L221.203 201.707C219.621 201.707 218.252 202.587 217.912 203.824L211.209 228.235C210.99 229.033 211.235 229.866 211.875 230.502C212.514 231.139 213.48 231.509 214.5 231.509H268.631C269.651 231.509 270.617 231.139 271.256 230.502C271.896 229.866 272.141 229.032 271.922 228.235V228.235Z" fill="#FFE666"/>
<path d="M217.791 228.235L211.088 203.824C210.748 202.588 209.379 201.707 207.797 201.707L199.929 199.91L189.509 201.707H167.072C165.49 201.707 164.121 202.587 163.782 203.824L157.078 228.235C156.859 229.033 157.104 229.866 157.744 230.502C158.383 231.139 159.349 231.509 160.369 231.509H214.5C215.52 231.509 216.486 231.139 217.125 230.502C217.765 229.866 218.01 229.032 217.791 228.235V228.235Z" fill="#FFE666"/>
<path d="M214.557 148.491C212.696 148.491 211.188 149.698 211.188 151.187V160.51C211.188 161.999 212.696 163.206 214.557 163.206C216.418 163.206 217.926 161.999 217.926 160.51V151.187C217.926 149.698 216.418 148.491 214.557 148.491V148.491Z" fill="#FABE2C"/>
<path d="M245.714 155.232C244.399 154.179 242.265 154.179 240.95 155.232L232.709 161.825C231.393 162.877 231.393 164.584 232.709 165.637C233.367 166.163 234.229 166.426 235.091 166.426C235.953 166.426 236.815 166.163 237.473 165.637L245.714 159.044C247.03 157.991 247.03 156.285 245.714 155.232V155.232Z" fill="#FABE2C"/>
<path d="M187.77 154.471C186.455 153.419 184.321 153.418 183.006 154.471C181.69 155.524 181.69 157.23 183.006 158.283L191.247 164.876C191.905 165.402 192.767 165.665 193.629 165.665C194.491 165.665 195.353 165.402 196.011 164.875C197.327 163.823 197.327 162.116 196.011 161.064L187.77 154.471Z" fill="#FABE2C"/>
<path d="M211.088 203.824C210.748 202.588 209.379 201.707 207.797 201.707L199.929 199.91L189.509 201.707H187.435V231.509H214.5C215.52 231.509 216.486 231.139 217.125 230.502C217.765 229.866 218.01 229.032 217.791 228.235L211.088 203.824Z" fill="#FABE2C"/>
<path d="M265.219 203.824C264.879 202.588 263.51 201.707 261.928 201.707H241.622L241.566 201.697V231.509H268.631C269.651 231.509 270.617 231.139 271.256 230.502C271.896 229.866 272.141 229.032 271.922 228.235L265.219 203.824Z" fill="#FABE2C"/>
<path d="M244.913 198.433L238.21 174.022C237.87 172.786 236.501 171.905 234.919 171.905H194.195C192.612 171.905 191.243 172.786 190.904 174.022L184.201 198.433C183.982 199.231 184.226 200.065 184.866 200.701C185.505 201.337 186.471 201.707 187.491 201.707H241.622C242.643 201.707 243.608 201.337 244.248 200.701C244.887 200.064 245.132 199.231 244.913 198.433V198.433Z" fill="#FFE666"/>
<path d="M238.21 174.022C237.87 172.786 236.501 171.905 234.919 171.905H214.557V201.707H241.622C242.643 201.707 243.608 201.337 244.248 200.701C244.888 200.064 245.132 199.231 244.913 198.433L238.21 174.022Z" fill="#FABE2C"/>
</g>
</g>
<defs>
<clipPath id="clip0">
<rect width="281" height="267" fill="white"/>
</clipPath>
<clipPath id="clip1">
<rect width="115" height="92" fill="white" transform="translate(157 144)"/>
</clipPath>
</defs>
</svg>
