<svg width="193.537" height="193.537" xmlns="http://www.w3.org/2000/svg">

 <g>
  <title>background</title>
  <rect fill="none" id="canvas_background" height="602" width="802" y="-1" x="-1"/>
 </g>
 <g>
  <title>Layer 1</title>
  <path id="svg_1" d="m162.375,150.603c-0.75,0.632 -1.665,0.94 -2.574,0.94c-1.139,0 -2.271,-0.484 -3.062,-1.424l-10.484,-12.453c-4.571,4.156 -10.341,8.292 -17.493,11.687l5.981,14.49c0.843,2.042 -0.129,4.381 -2.171,5.224c-0.5,0.206 -1.017,0.304 -1.525,0.304c-1.571,0 -3.062,-0.932 -3.699,-2.475l-5.984,-14.497c-7.313,2.561 -15.822,4.297 -25.661,4.673l0,15.486c0,2.209 -1.791,4 -4,4s-4,-1.791 -4,-4l0,-15.486c-8.969,-0.343 -16.819,-1.825 -23.679,-4.024l-5.716,13.848c-0.637,1.543 -2.127,2.475 -3.699,2.475c-0.509,0 -1.025,-0.098 -1.525,-0.304c-2.042,-0.843 -3.014,-3.182 -2.171,-5.224l5.623,-13.623c-7.36,-3.242 -13.327,-7.286 -18.095,-11.414l-9.524,11.313c-0.791,0.939 -1.923,1.424 -3.062,1.424c-0.91,0 -1.824,-0.309 -2.574,-0.94c-1.69,-1.423 -1.907,-3.946 -0.484,-5.636l9.884,-11.74c-7.161,-7.786 -10.215,-14.626 -10.5,-15.289c-0.872,-2.029 0.066,-4.382 2.096,-5.254c2.029,-0.874 4.382,0.066 5.254,2.096c0.271,0.62 3.386,7.491 10.852,14.929c0.103,0.071 0.212,0.129 0.31,0.211c0.263,0.222 0.478,0.477 0.669,0.744c5.142,4.902 12.19,9.936 21.57,13.515c0.126,0.038 0.253,0.062 0.378,0.113c0.05,0.021 0.092,0.053 0.141,0.076c7.766,2.894 17.092,4.794 28.251,4.794c46.854,0 62.023,-34.04 62.17,-34.384c0.872,-2.029 3.226,-2.971 5.254,-2.096c2.03,0.872 2.968,3.225 2.096,5.254c-0.269,0.626 -3.011,6.76 -9.34,13.994l10.974,13.035c1.426,1.692 1.209,4.215 -0.481,5.638z"/>
  <g id="svg_2"/>
  <g id="svg_3"/>
  <g id="svg_4"/>
  <g id="svg_5"/>
  <g id="svg_6"/>
  <g id="svg_7"/>
  <g id="svg_8"/>
  <g id="svg_9"/>
  <g id="svg_10"/>
  <g id="svg_11"/>
  <g id="svg_12"/>
  <g id="svg_13"/>
  <g id="svg_14"/>
  <g id="svg_15"/>
  <g id="svg_16"/>
 </g>
</svg>