<svg width="416.592" height="416.592" xmlns="http://www.w3.org/2000/svg">

 <g>
  <title>background</title>
  <rect fill="none" id="canvas_background" height="602" width="802" y="-1" x="-1"/>
 </g>
 <g>
  <title>Layer 1</title>
  <g id="svg_1">
   <g id="svg_2">
    <path stroke="null" id="svg_4" d="m70.97308,172.69781c1.86742,3.83297 5.70567,6.06119 9.69942,6.06119c1.58889,0 3.1959,-0.35099 4.72139,-1.09222c5.35242,-2.61167 7.57536,-9.06839 4.96444,-14.42081l-18.44323,-37.83678c-2.61092,-5.35317 -9.0699,-7.57762 -14.42005,-4.96897c-5.35619,2.61092 -7.58215,9.06763 -4.97199,14.42005l18.45003,37.83754z"/>
    <path stroke="null" id="svg_5" d="m152.09564,139.17815c0.75554,4.97141 5.0332,8.53285 9.90701,8.53285c0.50276,0 1.00833,-0.03792 1.516,-0.11586c5.47698,-0.82997 9.24767,-5.94252 8.41699,-11.42091l-5.86458,-38.70399c-0.82997,-5.47698 -5.94112,-9.24697 -11.42442,-8.41699c-5.47628,0.82997 -9.24697,5.94393 -8.41629,11.42372l5.86528,38.70118z"/>
    <path stroke="null" id="svg_6" d="m239.49883,147.58962c0.5265,0.0805 1.04793,0.12038 1.56718,0.12038c5.03223,0 9.45093,-3.67826 10.23271,-8.8113l6.05622,-39.9721c0.85865,-5.65954 -3.03718,-10.94124 -8.69236,-11.79843c-5.66099,-0.8572 -10.94196,3.03573 -11.79916,8.69309l-6.05695,39.97137c-0.85792,5.65954 3.03573,10.93979 8.69236,11.79698z"/>
    <path stroke="null" id="svg_7" d="m312.8043,173.55728c1.67629,0.81448 3.44307,1.19972 5.19159,1.19972c4.39372,0 8.61723,-2.45258 10.66963,-6.66696l20.2923,-41.61743c2.87186,-5.88818 0.4226,-12.98936 -5.4689,-15.86122c-5.88486,-2.86937 -12.99019,-0.42343 -15.86122,5.46558l-20.28648,41.62075c-2.87103,5.88652 -0.42343,12.98853 5.46309,15.85956z"/>
    <path id="svg_9" d="m367.261,249.769c-0.7,-0.885 -17.482,-21.884 -45.64,-42.57c-38.075,-27.974 -79.684,-42.76 -120.326,-42.76c-40.646,0 -82.254,14.786 -120.324,42.76c-27.471,20.18 -43.863,40.338 -45.653,42.585l-8.398,10.623c-1.438,1.818 -1.438,4.385 0,6.203l8.403,10.626c0.694,0.88 17.341,21.791 45.646,42.583c38.073,27.976 79.682,42.763 120.326,42.763c40.643,0 82.25,-14.787 120.325,-42.762c28.15,-20.68 44.945,-41.69 45.651,-42.581l8.401,-10.63c1.438,-1.817 1.438,-4.384 -0.001,-6.201l-8.41,-10.639zm-16.807,14.183c-0.622,0.789 -15.579,19.542 -41.521,38.595c-34.369,25.255 -71.595,38.604 -107.637,38.604c-36.043,0 -73.269,-13.349 -107.635,-38.604c-26.008,-19.105 -41.361,-38.394 -41.521,-38.592l-0.348,-0.444l0.354,-0.447c0.152,-0.195 15.507,-19.484 41.514,-38.592c22.464,-16.507 46.149,-27.925 69.928,-33.855c6.343,3.938 10.575,10.951 10.575,18.965c0,12.334 -10,22.333 -22.334,22.333c-6.482,0 -12.316,-2.764 -16.396,-7.174c-1.168,4.981 -1.807,10.169 -1.807,15.507c0,37.373 30.297,67.669 67.67,67.669c37.374,0 67.67,-30.296 67.67,-67.669c0,-17.907 -6.969,-34.178 -18.326,-46.282c19.846,6.453 39.496,16.694 58.292,30.505c25.94,19.055 40.898,37.809 41.521,38.597l0.349,0.442l-0.348,0.442z"/>
   </g>
  </g>
  <g id="svg_10"/>
  <g id="svg_11"/>
  <g id="svg_12"/>
  <g id="svg_13"/>
  <g id="svg_14"/>
  <g id="svg_15"/>
  <g id="svg_16"/>
  <g id="svg_17"/>
  <g id="svg_18"/>
  <g id="svg_19"/>
  <g id="svg_20"/>
  <g id="svg_21"/>
  <g id="svg_22"/>
  <g id="svg_23"/>
  <g id="svg_24"/>
 </g>
</svg>