<svg id="Layer_1" enable-background="new 0 0 510 510" height="512" viewBox="0 0 510 510" width="512" xmlns="http://www.w3.org/2000/svg"><g id="XMLID_76_"><path id="XMLID_3607_" d="m443.151 78.278-.165-.658-297.097 297.098c-1.59-1.905-3.264-3.765-5.053-5.554-32.218-32.219-84.454-32.219-116.672 0-32.219 32.218-32.219 84.454 0 116.672 32.218 32.219 84.454 32.219 116.672 0 3.591-3.59 261.997-261.996 261.997-261.996 38.072-38.072 53.377-93.328 40.318-145.562zm-334.304 374.908c-7.311 7.311-16.914 10.966-26.517 10.966s-19.205-3.655-26.516-10.966c-14.622-14.621-14.622-38.412 0-53.033 14.62-14.622 38.41-14.621 53.032 0s14.622 38.412.001 53.033z"/><path id="XMLID_4129_" d="m485.836 369.164c-32.218-32.219-84.454-32.219-116.672 0-1.789 1.789-3.463 3.648-5.053 5.554l-34.865-34.865c-17.214 17.214-35.33 35.331-53.033 53.033 49.77 49.769 91.523 91.522 92.951 92.95 32.218 32.219 84.454 32.219 116.672 0 32.219-32.218 32.219-84.454 0-116.672zm-31.651 84.022c-7.31 7.311-16.913 10.966-26.516 10.966-9.602 0-19.206-3.655-26.517-10.966-14.621-14.621-14.621-38.412 0-53.033 14.622-14.621 38.412-14.622 53.032 0 14.624 14.621 14.624 38.412.001 53.033z"/><path id="XMLID_4135_" d="m180.754 297.426 53.033-53.032-166.773-166.774-.165.658c-13.059 52.233 2.246 107.489 40.318 145.561 0 .001 31.976 31.976 73.587 73.587z"/><path id="XMLID_4169_" d="m240 150h30v30h-30z"/><path id="XMLID_4171_" d="m240 75h30v45h-30z"/><path id="XMLID_4173_" d="m240 0h30v45h-30z"/></g></svg>