<?xml version="1.0" encoding="iso-8859-1"?>
<!-- Generator: Adobe Illustrator 19.0.0, SVG Export Plug-In . SVG Version: 6.00 Build 0)  -->
<svg xmlns="http://www.w3.org/2000/svg" xmlns:xlink="http://www.w3.org/1999/xlink" version="1.1" id="Layer_1" x="0px" y="0px" viewBox="0 0 512 512" style="enable-background:new 0 0 512 512;" xml:space="preserve" width="512" height="512">
<path d="M255,394.948H80c-44.112,0-80-35.888-80-80v-118c0-44.112,35.888-80,80-80h175c11.046,0,20,8.954,20,20s-8.954,20-20,20H80  c-22.056,0-40,17.944-40,40v118c0,22.056,17.944,40,40,40h175c11.046,0,20,8.954,20,20S266.046,394.948,255,394.948z M432,116.948  h-18c-11.046,0-20,8.954-20,20s8.954,20,20,20h18c22.056,0,40,17.944,40,40v118c0,22.056-17.944,40-40,40h-18  c-11.046,0-20,8.954-20,20s8.954,20,20,20h18c44.112,0,80-35.888,80-80v-118C512,152.835,476.112,116.948,432,116.948z M414,472  c-33.084,0-60-26.916-60-60V100c0-33.084,26.916-60,60-60c11.046,0,20-8.954,20-20s-8.954-20-20-20  c-32.676,0-61.74,15.755-80,40.066C315.74,15.755,286.676,0,254,0c-11.046,0-20,8.954-20,20s8.954,20,20,20  c33.084,0,60,26.916,60,60v312c0,33.084-26.916,60-60,60c-11.046,0-20,8.954-20,20s8.954,20,20,20c32.676,0,61.74-15.755,80-40.066  C352.26,496.245,381.324,512,414,512c11.046,0,20-8.954,20-20S425.046,472,414,472z"/>















</svg>
