<svg width="113" height="113" viewBox="0 0 113 113" fill="none" xmlns="http://www.w3.org/2000/svg">
<path d="M84.2161 27.9998C68.381 12.9123 43.2224 13.5206 28.1349 29.3557C13.0474 45.1909 13.6557 70.3495 29.4908 85.437C45.3259 100.524 70.4845 99.9162 85.572 84.0811C100.66 68.2459 100.051 43.0873 84.2161 27.9998ZM81.4983 30.8524C93.0807 41.8879 95.619 58.906 88.8843 72.5503L47.3245 73.5664C46.2401 73.594 45.3819 74.4904 45.4024 75.5735L45.4593 78.5422L32.1878 65.8973L44.8617 52.5954L44.968 56.6387C44.9962 57.7181 45.8875 58.5729 46.9672 58.5574L64.4097 58.299L64.5614 65.1273C64.5792 65.9247 65.0752 66.6335 65.8192 66.9211C66.5632 67.2086 67.4067 67.0206 67.9571 66.4429L85.1815 48.3591C85.9321 47.5714 85.9026 46.3252 85.1142 45.574L67.0195 28.3336C66.4417 27.7831 65.5894 27.6354 64.8609 27.9592C64.1317 28.2824 63.6705 29.0143 63.6912 29.8117L63.8404 35.4857L27.4943 36.3574C28.5319 34.8625 29.6954 33.431 30.9881 32.0743C44.5767 17.811 67.2356 17.2631 81.4983 30.8524ZM32.2086 82.5844C20.4749 71.4047 18.0276 54.0866 25.092 40.3559L65.9086 39.3761C66.4324 39.3642 66.9293 39.1442 67.2901 38.7641C67.6508 38.3855 67.8458 37.8779 67.8317 37.3548L67.7558 34.4757L80.9708 47.0668L68.395 60.2702L68.3063 56.2533C68.3047 56.2159 68.3003 56.1799 68.298 56.1418C68.2952 56.1157 68.2953 56.0881 68.2911 56.0606C68.2866 56.0232 68.2779 55.9831 68.2713 55.9451C68.2671 55.919 68.2644 55.8929 68.2581 55.8676C68.2487 55.8296 68.2379 55.7917 68.2271 55.7538C68.2201 55.7292 68.2138 55.7039 68.2069 55.6793C68.1954 55.6421 68.179 55.6071 68.1654 55.5707C68.1563 55.5482 68.1473 55.5244 68.1375 55.5013C68.1218 55.4656 68.104 55.4321 68.0861 55.3958C68.075 55.3755 68.0646 55.3517 68.0527 55.3308C68.0343 55.298 68.013 55.2667 67.9917 55.2339C67.9785 55.213 67.9659 55.1914 67.952 55.1712C67.9308 55.1413 67.9067 55.1129 67.8841 55.0831C67.8687 55.0629 67.8534 55.0414 67.8359 55.022C67.8134 54.9963 67.7887 54.9715 67.7648 54.9459C67.7452 54.9259 67.727 54.9044 67.7067 54.885C67.6849 54.8629 67.6604 54.8423 67.6373 54.8231C67.6127 54.801 67.5903 54.7796 67.565 54.7597C67.5463 54.7432 67.524 54.7303 67.5046 54.7159C67.4743 54.6926 67.4433 54.67 67.4117 54.6496C67.4031 54.6427 67.3938 54.638 67.3844 54.6333C67.2494 54.5488 67.1034 54.4788 66.9495 54.4287C66.9309 54.4221 66.9145 54.4147 66.8959 54.4095C66.8667 54.401 66.8347 54.394 66.8042 54.387C66.7722 54.38 66.7387 54.3702 66.7074 54.3639C66.684 54.3595 66.6613 54.3572 66.6385 54.3535C66.5966 54.3467 66.5541 54.3407 66.5108 54.3368C66.4945 54.3351 66.479 54.3354 66.4634 54.3344C66.4138 54.3314 66.3656 54.3283 66.314 54.3288L48.8575 54.5337L48.68 47.7499C48.6601 46.9533 48.1621 46.2481 47.4182 45.9634C46.6763 45.6764 45.8342 45.8658 45.2845 46.4429L27.9778 64.6071C27.228 65.3941 27.2575 66.6418 28.0459 67.393L46.1609 84.6527C46.7365 85.2011 47.5853 85.3496 48.3117 85.0293C49.0403 84.7097 49.5052 83.984 49.4895 83.1887L49.3828 77.4585L86.5768 76.5493C85.4519 78.2345 84.1682 79.8471 82.723 81.3638C69.131 95.6265 46.4713 96.1737 32.2086 82.5844Z" fill="#7DC20C"/>
</svg>
