<svg width="193" height="182" viewBox="0 0 193 182" fill="none" xmlns="http://www.w3.org/2000/svg">
<path d="M55.6 181.8C45.8667 181.8 38.2 178.6 32.6 172.2C27 165.933 24.2 155.733 24.2 141.6V119.8C24.2 113.8 23.5333 109.333 22.2 106.4C20.8667 103.467 18.4667 101.333 15 100C11.6667 98.6667 6.73333 97.5333 0.2 96.6V81.8C6.46667 80.8667 11.3333 79.7333 14.8 78.4C18.2667 77.0667 20.6667 74.8667 22 71.8C23.4667 68.7333 24.2 64.2667 24.2 58.4V38.6C24.2 24.6 27 14.7333 32.6 9C38.3333 3.13333 45.8 0.199992 55 0.199992C57.2667 0.199992 59.6 0.333324 62 0.599987C64.4 0.733327 65.6 0.799996 65.6 0.799996L64.8 13.8C64.8 13.8 64.0667 13.8 62.6 13.8C61.1333 13.6667 59.4667 13.5333 57.6 13.4C55.7333 13.2667 54.1333 13.2 52.8 13.2C50 13.2 47.7333 13.8 46 15C44.2667 16.0667 42.9333 18.4667 42 22.2C41.2 25.8 40.8 31.4 40.8 39V58.6C40.8 65 40 70.2 38.4 74.2C36.8 78.2 34.8667 81.2667 32.6 83.4C30.4667 85.4 28.3333 86.8 26.2 87.6C24.2 88.2667 22.8 88.6667 22 88.8V90C22.8 90.1333 24.2 90.6 26.2 91.4C28.2 92.0667 30.3333 93.4 32.6 95.4C34.8667 97.4 36.8 100.467 38.4 104.6C40 108.6 40.8 113.933 40.8 120.6V141.6C40.8 149.467 41.2667 155.333 42.2 159.2C43.1333 163.2 44.5333 165.8 46.4 167C48.2667 168.2 50.5333 168.8 53.2 168.8L64.8 168.2L65.6 181.4L55.6 181.8ZM137.245 181.6L127.245 181.4L128.045 168.2L139.645 168.6C142.445 168.6 144.712 168 146.445 166.8C148.312 165.6 149.712 163.067 150.645 159.2C151.579 155.333 152.045 149.467 152.045 141.6V120.6C152.045 113.933 152.845 108.6 154.445 104.6C156.045 100.467 157.979 97.4 160.245 95.4C162.512 93.4 164.645 92.0667 166.645 91.4C168.645 90.6 170.045 90.1333 170.845 90V88.8C170.045 88.6667 168.579 88.2667 166.445 87.6C164.445 86.8 162.312 85.4 160.045 83.4C157.912 81.2667 156.045 78.2 154.445 74.2C152.845 70.2 152.045 65 152.045 58.6V39C152.045 31.4 151.645 25.8 150.845 22.2C150.045 18.4667 148.712 16.0667 146.845 15C145.112 13.8 142.845 13.2 140.045 13.2C138.712 13.2 137.112 13.2667 135.245 13.4C133.379 13.5333 131.712 13.6667 130.245 13.8C128.779 13.8 128.045 13.8 128.045 13.8L127.245 0.799996C127.245 0.799996 128.445 0.733327 130.845 0.599987C133.379 0.333324 135.712 0.199992 137.845 0.199992C147.045 0.199992 154.445 3.13333 160.045 9C165.779 14.7333 168.645 24.6 168.645 38.6V58.4C168.645 64.2667 169.312 68.7333 170.645 71.8C172.112 74.8667 174.579 77.0667 178.045 78.4C181.512 79.7333 186.379 80.8667 192.645 81.8V96.6C186.245 97.5333 181.312 98.6667 177.845 100C174.379 101.333 171.979 103.467 170.645 106.4C169.312 109.333 168.645 113.8 168.645 119.8V141.6C168.645 155.733 165.845 165.933 160.245 172.2C154.779 178.6 147.112 181.733 137.245 181.6Z" fill="#FB8D28"/>
</svg>
