<?xml version="1.0" encoding="utf-8"?>
<!-- Svg Vector Icons : http://www.onlinewebfonts.com/icon -->
<!DOCTYPE svg PUBLIC "-//W3C//DTD SVG 1.1//EN" "http://www.w3.org/Graphics/SVG/1.1/DTD/svg11.dtd">
<svg xmlns="http://www.w3.org/2000/svg" xmlns:xlink="http://www.w3.org/1999/xlink" version="1.1" x="0px" y="0px" viewBox="0 0 1000 1000" enable-background="new 0 0 1000 1000" xml:space="preserve">
<metadata> Svg Vector Icons : http://www.onlinewebfonts.com/icon </metadata>
<g><path d="M10,415.8c13.2-11,24.7-25.7,39.8-32.3c79.8-35.2,159.7-70.5,241.2-101.4c64.4-24.4,98-67.2,96.1-135.3c-1.7-60.7,28.3-67,76.3-54.7c147.4,37.9,295.4,73.3,443.3,109.5c36.9,9.1,45.8,20.2,44.9,58.8c-0.5,22.9-1.4,45.9-3,68.8c-4.5,67.2-38.8,115.8-98.3,144.2c-97.1,46.4-195.3,90.5-293.7,134.2c-11,4.9-26.8,4.2-38.7,0.6c-157.8-47.8-315.3-96.7-473.1-144.7C27.3,458,16.6,447.3,10,431.2C10,426.1,10,420.9,10,415.8z M161.2,417.8c4.9,3,6.3,4.3,8.1,4.9c118.7,36.5,237.5,73,356.4,109.2c5.4,1.7,12.8,1.3,18-1c90-40.7,180-81.4,269.6-123c26.6-12.4,49.8-30.4,55.7-61.5c4.6-24.1,5.9-48.8,8.8-74C737.3,237.7,600.3,204,466.3,171c-10.8,31.7-17.9,62.4-31.4,90c-21.2,43.5-61,67.3-104.2,85.4C274.9,369.9,219.2,393.4,161.2,417.8z" style="&#10;    fill: lightgreen;&#10;"/><path d="M10,565.2c21-28.7,29.8-31.5,64.5-20.8c147.9,45.4,295.8,91.1,444,135.8c10.3,3.1,24.2,2,34-2.4C677,622.1,800.9,565.3,925,508.9c26.4-12,42.2-10.4,55.6,5.4c13,15.3,12.3,36.2-2.6,49.5c-6,5.4-13.4,9.8-20.8,13.1c-131.6,60-263,120.3-395.1,179c-13.2,5.9-31.8,6.8-45.7,2.6c-156.7-47.1-313-95.8-469.5-143.7c-16.9-5.2-29-15-36.8-30.6C10,578,10,571.6,10,565.2z" style="&#10;    fill: #8bc34a;&#10;"/><path d="M10,714.6c16.8-27,39.8-27.6,67.6-18.9c145.8,45.6,292.1,90,437.9,135.6c14.7,4.6,26.3,3.2,39.7-2.9c122.2-56,244.5-111.5,366.9-166.9c9.1-4.1,19.1-7.5,29-8.7c16.4-2,28.6,6.4,35.1,20.9c6.9,15.3,4.5,30.2-8.8,41.5c-6.2,5.3-13.5,9.7-20.9,13.1c-130.4,59.5-260.9,118.5-391.2,178.2c-17.5,8-33.8,8.5-51.7,3c-153.9-47.5-308-94.4-461.6-142.8C36.5,761.8,24,747.5,10,737.6C10,729.9,10,722.3,10,714.6z" style="&#10;    fill: #009688;&#10;"/></g>
</svg>