<?xml version="1.0" encoding="utf-8"?>
<!-- Svg Vector Icons : http://www.onlinewebfonts.com/icon -->
<!DOCTYPE svg PUBLIC "-//W3C//DTD SVG 1.1//EN" "http://www.w3.org/Graphics/SVG/1.1/DTD/svg11.dtd">
<svg xmlns="http://www.w3.org/2000/svg" xmlns:xlink="http://www.w3.org/1999/xlink" version="1.1" x="0px" y="0px" viewBox="0 0 1000 1000" enable-background="new 0 0 1000 1000" xml:space="preserve">
<metadata> Svg Vector Icons : http://www.onlinewebfonts.com/icon </metadata>
<g><g transform="translate(0.000000,469.000000) scale(0.100000,-0.100000)"><path d="M3408.7,4149.8c-690.4-97.5-1176.2-411.2-1390.4-898.9c-101.4-227.6-116.7-357.7-116.7-975.4v-573.8l-80.3-160.7l-82.2-160.7V919.5V458.5l53.5-112.8c28.7-63.1,82.2-151.1,118.6-195.1c44-53.5,88-143.4,124.3-260.1c72.7-225.7,271.6-627.3,409.3-833.9l107.1-158.8v-300.3c0-350-17.2-426.5-112.8-520.2c-42.1-42.1-369.1-233.3-853-495.4c-430.3-235.2-824.3-457.1-872.1-491.5c-132-95.6-309.8-294.5-397.8-441.8c-42.1-70.8-105.2-212.3-139.6-311.7l-61.2-181.7l-7.7-472.4l-7.7-474.3h4900h4900l-7.7,415c-7.6,384.4-11.5,428.4-57.4,564.2c-26.8,80.3-80.3,202.7-120.5,273.5c-88,158.7-296.5,380.6-436.1,464.8c-59.3,36.3-449.5,212.3-868.3,394c-418.8,181.7-782.2,340.4-809,355.8c-57.4,28.7-133.9,95.6-133.9,118.6c0,7.6,311.7,15.3,694.3,15.3c380.6,0,747.8,9.6,816.7,19.1c189.4,28.7,371.1,91.8,447.5,156.8c128.1,105.2,202.7,319.4,174,493.4c-9.6,51.6-65,158.7-168.3,311.7c-374.9,568-646.4,1138-793.7,1667.8c-82.2,294.5-116.7,489.6-139.6,810.9c-45.9,665.6-227.6,1136.1-583.3,1510.9c-321.3,342.3-759.3,527.9-1300.5,550.8c-309.8,13.4-646.4-32.5-870.2-118.6c-24.8-9.6-38.3,3.8-53.5,53.5c-13.4,36.3-57.4,116.7-99.5,177.9c-252.4,365.3-615.8,579.5-1166.7,686.6C4202.5,4174.7,3649.7,4186.1,3408.7,4149.8z M4227.3,3832.3c554.6-61.2,939.1-277.3,1124.6-627.3c126.3-239.1,130.1-281.2,126.3-1002.2l-1.9-646.5l68.9-76.5c38.3-42.1,76.5-97.5,86.1-124.3c26.8-66.9,24.9-812.8-1.9-881.7c-30.6-82.2-110.9-154.9-206.5-187.4l-88-28.7l-63.1-187.4c-109-323.2-292.6-657.9-514.5-944.8l-84.2-107.1l5.7-428.4l5.7-426.5l61.2-128.1c114.8-242.9,153-267.8,1162.8-774.6l898.9-451.4l143.4-145.4c246.7-248.6,325.1-460.9,325.1-885.5v-244.8H3852.5H429v244.8c0,378.7,59.3,587.2,235.2,818.6c47.8,63.1,139.6,153,202.7,198.9c63.1,45.9,462.8,273.5,885.5,506.8c424.6,231.4,795.6,438,826.2,459c89.9,61.2,218,250.5,260.1,386.3c32.5,107.1,38.3,177.9,38.3,493.4v371l-114.8,158.8C2563.4-555.1,2374-138.2,2284.2,209.9c-13.4,55.5-38.3,88-86.1,118.6c-122.4,80.3-133.9,124.3-139.6,543.2c-7.7,430.3,5.7,503,101.4,596.7l66.9,65v638.8c0,719.1,9.6,789.9,128.1,1019.4c149.2,288.8,439.9,497.3,814.7,585.2C3475.7,3849.5,3885,3870.6,4227.3,3832.3z M6977.6,2956.4c438-116.7,774.6-390.2,973.5-793.7c139.6-283.1,195.1-512.6,225.7-925.7c44-621.6,210.4-1195.4,545.1-1860.9c149.2-298.4,315.6-585.2,480.1-828.1c151.1-225.7,137.7-283.1-93.7-361.5c-112.8-38.3-170.2-40.2-952.5-51.6c-824.3-9.6-832-9.6-893.2-53.5c-72.7-51.6-139.6-183.6-139.6-273.5c0-86.1,91.8-244.8,195.1-332.8c61.2-53.5,281.2-156.8,893.2-422.7c445.6-193.2,856.8-378.7,916.1-413.1c198.9-120.5,355.8-344.3,415-592.9c15.3-66.9,28.7-208.5,28.7-315.6v-197h-973.5h-971.6l-11.5,281.1c-7.7,202.7-22.9,323.2-51.6,422.7c-97.5,342.4-325.1,661.7-612,858.7c-47.8,32.5-351.9,191.3-679,355.7L5679-2251.6l5.7,103.3c5.8,89.9,0,112.8-44,164.5c-80.3,95.6-116.7,107.1-363.4,118.6l-229.5,9.6l-22.9,66.9c-13.4,40.2-22.9,189.3-22.9,372.9l-1.9,306l124.3,172.1c130,181.7,355.8,606.3,430.3,809c36.3,97.5,59.3,132,124.3,176c109,74.6,176,158.7,242.9,296.5l53.6,114.8v451.4c0,485.8-9.6,543.2-105.2,688.5c-45.9,70.8-45.9,72.7-51.6,684.7l-5.7,615.8l124.3,36.3c208.5,63.1,323.2,74.6,612,66.9C6751.9,2998.4,6866.7,2985,6977.6,2956.4z" style="&#10;    fill: #2196f3;&#10;"/></g></g>
</svg>